<svg width="2141" height="385" viewBox="0 0 2141 385" fill="none" xmlns="http://www.w3.org/2000/svg">
<g clip-path="url(#clip0_63_111)">
<rect width="2141" height="385" rx="8" fill="#5C99F2"/>
<path opacity="0.8" d="M557.967 142.258C620.936 102.201 642.694 76.3288 664.982 26L677 53.4896C635.488 98.776 610.465 120.825 564.262 157.148L516.191 188.647C487.027 206.484 470.203 215.719 432.067 219C412.549 218.362 400.013 217.211 391.613 205.828C383.031 194.197 385.401 184.988 391.31 172.611C398.428 157.702 408.809 149.064 432.067 142.258C464.198 138.255 482.543 138.955 516.191 148.558C532.897 149.631 542.064 148.393 557.967 142.258Z" fill="#3F4B9E"/>
<path opacity="0.8" d="M301 -25C216.324 23.2423 164.495 40.878 58 42C42.5296 55.3502 34.4327 63.6006 21 79.5C195.75 102.421 269.083 84.0642 349 -13C332.101 -19.7016 321.392 -22.1119 301 -25Z" fill="#3F4B9E"/>
<path opacity="0.8" d="M350.395 327.426C233.098 333.34 164.317 328.634 25 276C38.7928 301.366 49.2804 315.425 69.2915 336.484C73.6392 341.06 76.7817 342.173 83.4648 343.897C191.502 371.761 249.369 364.972 350.395 349.894C364.222 347.603 372.494 344.976 378.151 341.26C386.995 335.451 390.416 329.046 377.376 327.426C371.051 326.641 362.369 326.891 350.395 327.426Z" fill="#3F4B9E"/>
<path opacity="0.8" d="M277.569 157.914C181.69 162.498 129.272 158.885 42.1413 123C36.9781 139.571 36.7082 149.408 37.1428 167.145C55.5833 175.397 68.2058 177.844 92.6258 180.388L277.569 184C289.227 183.685 295.921 182.32 300.304 178.783C307.109 173.292 306.219 168.283 299.562 163.213C294.459 159.327 288.112 158.096 277.569 157.914Z" fill="white"/>
<path opacity="0.8" d="M481.237 313.167C549.354 293.17 585.046 280.318 639 251C638.81 263.901 637.365 270.603 630.268 280.749C572.637 314.772 542.403 327.119 493.463 333C485.719 332.885 481.162 332.133 477.184 329.567C472.953 326.839 472.312 324.066 473.582 320.276C474.603 317.226 477.045 315.37 481.237 313.167Z" fill="white"/>
<path opacity="0.8" d="M381.244 51.2487C474.104 26.9438 526.137 19.6427 618.804 36.7407C620.43 19.4603 618.66 9.77965 614.569 -7.48377C594.82 -11.7461 581.965 -11.5303 557.546 -8.97153L375.851 25.7267C364.51 28.445 358.243 31.1643 354.685 35.531C349.163 42.3102 351.069 47.0272 358.63 50.6107C364.427 53.358 370.89 53.2502 381.244 51.2487Z" fill="white"/>
<g clip-path="url(#clip1_63_111)">
<rect x="749" width="1392" height="385" rx="8" fill="#5C99F2"/>
<path opacity="0.8" d="M876.737 191.657C810.837 226.681 787.127 250.777 760.981 299.215L751.144 270.871C796.062 228.961 822.728 208.93 871.623 176.321L922.004 148.668C952.471 133.159 969.964 125.266 1008.24 124.968C1027.65 127.126 1040.06 129.252 1047.54 141.255C1055.19 153.52 1052.11 162.517 1045.25 174.395C1037 188.704 1025.97 196.505 1002.25 201.476C969.909 202.961 951.675 200.833 918.877 188.635C902.306 186.262 893.071 186.781 876.737 191.657Z" fill="#3F4B9E"/>
<path opacity="0.8" d="M1119.88 378.448C1208.06 336.956 1261.1 323.417 1367.36 330.604C1383.83 318.501 1392.54 310.907 1407.17 296.104C1234.74 259.624 1160.2 272.205 1072.96 362.74C1089.28 370.74 1099.77 373.978 1119.88 378.448Z" fill="#3F4B9E"/>
<path opacity="0.8" d="M1098.12 23.2425C1215.52 26.4953 1283.73 36.551 1418.51 99.8908C1406.74 73.5263 1397.38 58.6921 1379.07 36.1363C1375.1 31.2358 1372.05 29.8804 1365.52 27.6407C1259.99 -8.56462 1201.77 -6.30943 1099.87 0.843199C1085.91 2.04894 1077.46 4.02224 1071.53 7.28545C1062.26 12.3871 1058.35 18.5064 1071.22 21.1381C1077.47 22.4147 1086.14 22.8416 1098.12 23.2425Z" fill="#3F4B9E"/>
<path opacity="0.8" d="M1157.5 197.918C1253.45 200.826 1305.42 208.516 1389.49 251.088C1395.93 234.97 1396.97 225.184 1397.92 207.467C1380.18 197.802 1367.78 194.378 1343.64 189.937L1159.54 171.912C1147.89 171.317 1141.11 172.155 1136.46 175.34C1129.25 180.283 1129.75 185.347 1135.99 190.92C1140.77 195.192 1147.01 196.914 1157.5 197.918Z" fill="white"/>
<path opacity="0.8" d="M1034.46 290.986C941.795 316.033 889.822 323.749 797.022 307.392C795.534 324.685 797.381 334.352 801.61 351.582C821.392 355.686 834.245 355.368 858.642 352.614L1040.05 316.465C1051.37 313.656 1057.62 310.886 1061.14 306.491C1066.61 299.668 1064.67 294.967 1057.08 291.444C1051.26 288.743 1044.8 288.902 1034.46 290.986Z" fill="white"/>
<path opacity="0.8" d="M966.564 27.2528C897.095 41.8766 860.509 51.906 804.433 76.9264C805.629 64.0796 807.592 57.5104 815.459 47.9492C875.567 18.5244 906.672 8.57304 955.923 6.5272C963.634 7.24622 968.118 8.35105 971.883 11.2189C975.889 14.2694 976.312 17.0831 974.75 20.7633C973.494 23.7238 970.915 25.3836 966.564 27.2528Z" fill="white"/>
<path opacity="0.8" d="M2036.16 152.013C2099.08 111.882 2120.81 85.9842 2143.04 35.6294L2155.09 63.1049C2113.63 108.44 2088.64 130.519 2042.48 166.896L1994.44 198.451C1965.3 216.322 1948.48 225.576 1910.35 228.902C1890.83 228.288 1878.3 227.151 1869.88 215.778C1861.29 204.157 1863.65 194.945 1869.54 182.562C1876.64 167.644 1887.01 158.994 1910.26 152.161C1942.39 148.12 1960.73 148.798 1994.39 158.362C2011.1 159.415 2020.27 158.166 2036.16 152.013Z" fill="#3F4B9E"/>
<path opacity="0.8" d="M1779 -14.9437C1694.38 33.3979 1642.57 51.0944 1536.08 52.3413C1520.62 65.7096 1512.54 73.9695 1499.12 89.8846C1673.9 112.601 1747.21 94.1579 1827.01 -3.00001C1810.11 -9.68174 1799.4 -12.0795 1779 -14.9437Z" fill="#3F4B9E"/>
<path opacity="0.8" d="M1828.81 337.424C1711.52 343.475 1642.73 338.851 1503.35 286.38C1517.18 311.73 1527.68 325.776 1547.72 346.812C1552.07 351.382 1555.21 352.492 1561.9 354.208C1669.97 381.945 1727.83 375.088 1828.83 359.892C1842.66 357.585 1850.93 354.948 1856.58 351.226C1865.42 345.406 1868.83 338.997 1855.79 337.393C1849.46 336.614 1840.78 336.875 1828.81 337.424Z" fill="#3F4B9E"/>
<path opacity="0.8" d="M1755.78 167.998C1659.91 172.694 1607.49 169.143 1520.31 133.36C1515.17 149.937 1514.91 159.775 1515.37 177.51C1533.82 185.741 1546.44 188.173 1570.87 190.689L1755.81 194.084C1767.47 193.755 1774.16 192.382 1778.54 188.84C1785.34 183.341 1784.45 178.333 1777.78 173.271C1772.67 169.391 1766.33 168.168 1755.78 167.998Z" fill="white"/>
<path opacity="0.8" d="M1959.63 323.012C2027.73 302.935 2063.4 290.041 2117.32 260.66C2117.15 273.561 2115.71 280.265 2108.63 290.419C2051.04 324.51 2020.82 336.892 1971.88 342.83C1964.14 342.724 1959.58 341.978 1955.6 339.417C1951.37 336.693 1950.72 333.922 1951.99 330.129C1953 327.079 1955.44 325.22 1959.63 323.012Z" fill="white"/>
</g>
</g>
<defs>
<clipPath id="clip0_63_111">
<rect width="2141" height="385" rx="8" fill="white"/>
</clipPath>
<clipPath id="clip1_63_111">
<rect x="749" width="1392" height="385" rx="8" fill="white"/>
</clipPath>
</defs>
</svg>
